<svg width="25" height="24" viewBox="0 0 25 24" fill="none" xmlns="http://www.w3.org/2000/svg">
<path d="M20.6294 6.03484C19.5849 6.03484 18.6731 6.64399 18.4148 7.51464L17.1427 11.7896H6.93108C5.88564 11.7896 4.97297 12.4003 4.71556 13.2725L1.5498 24.0002H7.0607L9.24095 16.5113H15.8859C19.024 16.5113 21.7629 14.6804 22.5383 12.0638L24.331 6.03479L20.6294 6.03484Z" fill="white"/>
<path d="M6.24733 8.48796L7.36338 4.72137H16.686C17.7315 4.72137 18.6441 4.11069 18.9015 3.23871L19.8576 -0.000244141H8.62023C5.48263 -0.000244141 2.7437 1.83067 1.96782 4.44725L0.331055 9.96776H4.03273C5.07726 9.96776 5.98855 9.3588 6.24733 8.48796Z" fill="white"/>
</svg>
